<svg xmlns:xlink="http://www.w3.org/1999/xlink" xmlns="http://www.w3.org/2000/svg" version="1.1" fill="none" stroke="none" stroke-width="0" class="dxc dxc-chart" style="line-height:normal;-ms-user-select:none;-moz-user-select:none;-webkit-user-select:none;-webkit-tap-highlight-color:rgba(0, 0, 0, 0);display:block;overflow:hidden;" width="247" height="400" direction="ltr"><defs><filter id="DevExpress_6" x="-50%" y="-50%" width="200%" height="200%" transform="translate(0,0)"><feGaussianBlur in="SourceGraphic" result="gaussianBlurResult" stdDeviation="3"></feGaussianBlur><feOffset in="gaussianBlurResult" result="offsetResult" dx="2" dy="6"></feOffset><feFlood result="floodResult" flood-color="#d3d3d3" flood-opacity="0.8"></feFlood><feComposite in="floodResult" in2="offsetResult" operator="in" result="compositeResult"></feComposite><feComposite in="SourceGraphic" in2="compositeResult" operator="over"></feComposite></filter><clipPath id="DevExpress_7"><rect x="0" y="0" width="247" height="400" transform="translate(0,0)"></rect></clipPath></defs><rect x="0" y="0" width="247" height="400" transform="translate(0,0)" fill="gray" opacity="0.0001"></rect><g class="dxc-background"></g><g class="dxc-series-group"><g class="dxc-series"><g class="dxc-markers"><path d="M 175.91518 213.34770 A 61.00000 61.00000 0 0 0 184.00000 183.00000 L 153.00000 183.00000 A 30.00000 30.00000 0 0 1 149.02386 197.92510 Z" transform="translate(0,0)" stroke-linejoin="round" fill="#60a69f" stroke="#ffffff" stroke-width="0"></path><path d="M 98.73678 238.96692 A 61.00000 61.00000 0 0 0 175.91518 213.34770 L 149.02386 197.92510 A 30.00000 30.00000 0 0 1 111.06727 210.52472 Z" transform="translate(0,0)" stroke-linejoin="round" fill="#78b6d9" stroke="#ffffff" stroke-width="0"></path><path d="M 183.37829 174.31311 A 61.00000 61.00000 0 1 0 98.73678 238.96692 L 111.06727 210.52472 A 30.00000 30.00000 0 1 1 152.69424 178.72776 Z" transform="translate(0,0)" stroke-linejoin="round" fill="#6682bb" stroke="#ffffff" stroke-width="0"></path><path d="M 184.00000 183.00000 A 61.00000 61.00000 0 0 0 183.37829 174.31311 L 152.69424 178.72776 A 30.00000 30.00000 0 0 1 153.00000 183.00000 Z" transform="translate(0,0)" stroke-linejoin="round" fill="#a37182" stroke="#ffffff" stroke-width="0"></path></g></g></g><g class="dxc-labels-group"><g class="dxc-labels" transform="translate(0,0)"><g visibility="visible"><path d="M 182 199 L 194 207 L 211 207" transform="translate(0.5,0.5)" stroke="#60a69f" stroke-width="1"></path><g transform="translate(219,211)"><rect x="-8" y="-17" width="31" height="25" transform="translate(0,0)" fill="#60a69f" stroke-width="0" stroke="none" isEmpty="false"></rect><text style="white-space:pre;fill:#ffffff;font-family:'Segoe UI', 'Helvetica Neue', 'Trebuchet MS', Verdana, sans-serif;font-weight:400;font-size:12px;cursor:default;" x="0" y="0" transform="translate(0,0)"><tspan x="0" y="0">9...</tspan></text></g></g><g visibility="visible"><path d="M 142 241 L 152 270 L 152 270" transform="translate(0.5,0.5)" stroke="#78b6d9" stroke-width="1"></path><g transform="translate(160,274)"><rect x="-8" y="-17" width="56" height="25" transform="translate(0,0)" fill="#78b6d9" stroke-width="0" stroke="none" isEmpty="false"></rect><text style="white-space:pre;fill:#ffffff;font-family:'Segoe UI', 'Helvetica Neue', 'Trebuchet MS', Verdana, sans-serif;font-weight:400;font-size:12px;cursor:default;" x="0" y="0" transform="translate(0,0)">2,745M</text></g></g><g visibility="visible"><path d="M 86 134 L 68 111 L 68 111" transform="translate(0.5,0.5)" stroke="#6682bb" stroke-width="1"></path><g transform="translate(20,115)"><rect x="-8" y="-17" width="56" height="25" transform="translate(0,0)" fill="#6682bb" stroke-width="0" stroke="none" isEmpty="false"></rect><text style="white-space:pre;fill:#ffffff;font-family:'Segoe UI', 'Helvetica Neue', 'Trebuchet MS', Verdana, sans-serif;font-weight:400;font-size:12px;cursor:default;" x="0" y="0" transform="translate(0,0)">7,826M</text></g></g><g visibility="visible"><path d="M 184 179 L 212 177 L 214 177" transform="translate(0.5,0.5)" stroke="#a37182" stroke-width="1"></path><g transform="translate(222,181)"><rect x="-8" y="-17" width="31" height="25" transform="translate(0,0)" fill="#a37182" stroke-width="0" stroke="none" isEmpty="false"></rect><text style="white-space:pre;fill:#ffffff;font-family:'Segoe UI', 'Helvetica Neue', 'Trebuchet MS', Verdana, sans-serif;font-weight:400;font-size:12px;cursor:default;" x="0" y="0" transform="translate(0,0)"><tspan x="0" y="0">2...</tspan></text></g></g></g></g><g class="dxc-legend" clip-path="url(#DevExpress_7)" transform="translate(0,0)"><g transform="translate(19,367)"><g class="dxc-item" style="fill:#767676;font-family:'Segoe UI', 'Helvetica Neue', 'Trebuchet MS', Verdana, sans-serif;font-weight:400;font-size:12px;cursor:default;"><g><g class="dxl-marker" transform="translate(19,0)"><rect x="0" y="0" width="12" height="12" transform="translate(0,0)" fill="#60a69f" opacity="1"></rect></g><text style="white-space:pre;fill:#767676;font-family:'Segoe UI', 'Helvetica Neue', 'Trebuchet MS', Verdana, sans-serif;font-weight:400;font-size:12px;cursor:default;" x="0" y="0" transform="translate(25,29)" text-anchor="middle">FwdSwap</text></g><g><g class="dxl-marker" transform="translate(86,0)"><rect x="0" y="0" width="12" height="12" transform="translate(0,0)" fill="#78b6d9" opacity="1"></rect></g><text style="white-space:pre;fill:#767676;font-family:'Segoe UI', 'Helvetica Neue', 'Trebuchet MS', Verdana, sans-serif;font-weight:400;font-size:12px;cursor:default;" x="0" y="0" transform="translate(92,29)" text-anchor="middle">Forward</text></g><g><g class="dxl-marker" transform="translate(143,0)"><rect x="0" y="0" width="12" height="12" transform="translate(0,0)" fill="#6682bb" opacity="1"></rect></g><text style="white-space:pre;fill:#767676;font-family:'Segoe UI', 'Helvetica Neue', 'Trebuchet MS', Verdana, sans-serif;font-weight:400;font-size:12px;cursor:default;" x="0" y="0" transform="translate(149,29)" text-anchor="middle">Swap</text></g><g><g class="dxl-marker" transform="translate(191,0)"><rect x="0" y="0" width="12" height="12" transform="translate(0,0)" fill="#a37182" opacity="1"></rect></g><text style="white-space:pre;fill:#767676;font-family:'Segoe UI', 'Helvetica Neue', 'Trebuchet MS', Verdana, sans-serif;font-weight:400;font-size:12px;cursor:default;" x="0" y="0" transform="translate(197,29)" text-anchor="middle">Spot</text></g></g></g></g></svg>