<svg xmlns:xlink="http://www.w3.org/1999/xlink" xmlns="http://www.w3.org/2000/svg" version="1.1" fill="none" stroke="none" stroke-width="0" class="dxc dxc-chart" style="line-height:normal;-ms-user-select:none;-moz-user-select:none;-webkit-user-select:none;-webkit-tap-highlight-color:rgba(0, 0, 0, 0);display:block;overflow:hidden;" width="247" height="400" direction="ltr"><defs><filter id="DevExpress_1" x="-50%" y="-50%" width="200%" height="200%" transform="translate(0,0)"><feGaussianBlur in="SourceGraphic" result="gaussianBlurResult" stdDeviation="3"></feGaussianBlur><feOffset in="gaussianBlurResult" result="offsetResult" dx="2" dy="6"></feOffset><feFlood result="floodResult" flood-color="#d3d3d3" flood-opacity="0.8"></feFlood><feComposite in="floodResult" in2="offsetResult" operator="in" result="compositeResult"></feComposite><feComposite in="SourceGraphic" in2="compositeResult" operator="over"></feComposite></filter><clipPath id="DevExpress_2"><rect x="0" y="0" width="247" height="400" transform="translate(0,0)"></rect></clipPath><clipPath id="DevExpress_4"><rect x="25" y="9" width="222" height="342" transform="translate(0,0)"></rect></clipPath><clipPath id="DevExpress_5"><rect x="25" y="9" width="222" height="342" transform="translate(0,0)"></rect></clipPath></defs><rect x="0" y="0" width="247" height="400" transform="translate(0,0)" fill="gray" opacity="0.0001"></rect><g class="dxc-background"></g><g class="dxc-strips-group"><g class="dxc-val-strips" clip-path="url(#DevExpress_4)"></g><g class="dxc-arg-strips" clip-path="url(#DevExpress_4)"></g></g><g class="dxc-grids-group"><g class="dxc-val-grid"><path d="M 25 351 L 247 351" transform="translate(0,-0.5)" stroke="#d3d3d3" stroke-width="1" opacity="1"></path><path d="M 25 294 L 247 294" transform="translate(0,0.5)" stroke="#d3d3d3" stroke-width="1" opacity="1"></path><path d="M 25 237 L 247 237" transform="translate(0,0.5)" stroke="#d3d3d3" stroke-width="1" opacity="1"></path><path d="M 25 180 L 247 180" transform="translate(0,0.5)" stroke="#d3d3d3" stroke-width="1" opacity="1"></path><path d="M 25 123 L 247 123" transform="translate(0,0.5)" stroke="#d3d3d3" stroke-width="1" opacity="1"></path><path d="M 25 66 L 247 66" transform="translate(0,0.5)" stroke="#d3d3d3" stroke-width="1" opacity="1"></path><path d="M 25 9 L 247 9" transform="translate(0,0.5)" stroke="#d3d3d3" stroke-width="1" opacity="1"></path></g><g class="dxc-arg-grid"></g></g><g class="dxc-border"></g><g class="dxc-axes-group"><g class="dxc-val-axis" transform="translate(0,0)" clip-path="url(#DevExpress_2)"><g class="dxc-val-elements"><text style="white-space:pre;fill:#767676;font-family:'Segoe UI', 'Helvetica Neue', 'Trebuchet MS', Verdana, sans-serif;font-weight:400;font-size:12px;cursor:default;" x="25" y="351" transform="translate(-14,4.5)" text-anchor="middle">0</text><text style="white-space:pre;fill:#767676;font-family:'Segoe UI', 'Helvetica Neue', 'Trebuchet MS', Verdana, sans-serif;font-weight:400;font-size:12px;cursor:default;" x="25" y="294" transform="translate(-17,4.5)" text-anchor="middle">1B</text><text style="white-space:pre;fill:#767676;font-family:'Segoe UI', 'Helvetica Neue', 'Trebuchet MS', Verdana, sans-serif;font-weight:400;font-size:12px;cursor:default;" x="25" y="237" transform="translate(-17,4.5)" text-anchor="middle">2B</text><text style="white-space:pre;fill:#767676;font-family:'Segoe UI', 'Helvetica Neue', 'Trebuchet MS', Verdana, sans-serif;font-weight:400;font-size:12px;cursor:default;" x="25" y="180" transform="translate(-17,4.5)" text-anchor="middle">3B</text><text style="white-space:pre;fill:#767676;font-family:'Segoe UI', 'Helvetica Neue', 'Trebuchet MS', Verdana, sans-serif;font-weight:400;font-size:12px;cursor:default;" x="25" y="123" transform="translate(-17,4.5)" text-anchor="middle">4B</text><text style="white-space:pre;fill:#767676;font-family:'Segoe UI', 'Helvetica Neue', 'Trebuchet MS', Verdana, sans-serif;font-weight:400;font-size:12px;cursor:default;" x="25" y="66" transform="translate(-17,4.5)" text-anchor="middle">5B</text><text style="white-space:pre;fill:#767676;font-family:'Segoe UI', 'Helvetica Neue', 'Trebuchet MS', Verdana, sans-serif;font-weight:400;font-size:12px;cursor:default;" x="25" y="9" transform="translate(-17,4.5)" text-anchor="middle">6B</text></g><g class="dxc-val-line"><path d="M 25 351 L 25 9" transform="translate(0.5,0)" stroke-width="1" stroke="#767676"></path><path d="M 19 351 L 26 351" transform="translate(0,-0.5)" stroke="#767676" stroke-width="1" opacity="1"></path><path d="M 19 294 L 26 294" transform="translate(0,0.5)" stroke="#767676" stroke-width="1" opacity="1"></path><path d="M 19 237 L 26 237" transform="translate(0,0.5)" stroke="#767676" stroke-width="1" opacity="1"></path><path d="M 19 180 L 26 180" transform="translate(0,0.5)" stroke="#767676" stroke-width="1" opacity="1"></path><path d="M 19 123 L 26 123" transform="translate(0,0.5)" stroke="#767676" stroke-width="1" opacity="1"></path><path d="M 19 66 L 26 66" transform="translate(0,0.5)" stroke="#767676" stroke-width="1" opacity="1"></path><path d="M 19 9 L 26 9" transform="translate(0,0.5)" stroke="#767676" stroke-width="1" opacity="1"></path></g><g class="dxc-val-title"></g></g><g class="dxc-arg-axis" transform="translate(0,0)" clip-path="url(#DevExpress_2)"><g class="dxc-arg-elements"><text style="white-space:pre;fill:#767676;font-family:'Segoe UI', 'Helvetica Neue', 'Trebuchet MS', Verdana, sans-serif;font-weight:400;font-size:12px;cursor:default;" x="36" y="351" transform="translate(0,23)" text-anchor="middle"><tspan x="36" y="351">EUR/USD</tspan></text><text style="white-space:pre;fill:#767676;font-family:'Segoe UI', 'Helvetica Neue', 'Trebuchet MS', Verdana, sans-serif;font-weight:400;font-size:12px;cursor:default;" x="81" y="351" transform="translate(-0.5,45)" text-anchor="middle"><tspan x="81" y="351">USD/CAD</tspan></text><text style="white-space:pre;fill:#767676;font-family:'Segoe UI', 'Helvetica Neue', 'Trebuchet MS', Verdana, sans-serif;font-weight:400;font-size:12px;cursor:default;" x="125" y="351" transform="translate(0,23)" text-anchor="middle"><tspan x="125" y="351">EUR/HUF</tspan></text><text style="white-space:pre;fill:#767676;font-family:'Segoe UI', 'Helvetica Neue', 'Trebuchet MS', Verdana, sans-serif;font-weight:400;font-size:12px;cursor:default;" x="169" y="351" transform="translate(0,45)" text-anchor="middle"><tspan x="169" y="351">EUR/CHF</tspan></text><text style="white-space:pre;fill:#767676;font-family:'Segoe UI', 'Helvetica Neue', 'Trebuchet MS', Verdana, sans-serif;font-weight:400;font-size:12px;cursor:default;" x="214" y="351" transform="translate(0,23)" text-anchor="middle"><tspan x="214" y="351">EUR/AUD</tspan></text></g><g class="dxc-arg-line"><path d="M 25 351 L 247 351" transform="translate(0,-0.5)" stroke-width="1" stroke="#767676"></path><path d="M 47 350 L 47 357" transform="translate(0.5,0)" stroke="#767676" stroke-width="1" opacity="1"></path><path d="M 69 350 L 69 357" transform="translate(0.5,0)" stroke="#767676" stroke-width="1" opacity="1"></path><path d="M 92 350 L 92 357" transform="translate(0.5,0)" stroke="#767676" stroke-width="1" opacity="1"></path><path d="M 114 350 L 114 357" transform="translate(0.5,0)" stroke="#767676" stroke-width="1" opacity="1"></path><path d="M 136 350 L 136 357" transform="translate(0.5,0)" stroke="#767676" stroke-width="1" opacity="1"></path><path d="M 158 350 L 158 357" transform="translate(0.5,0)" stroke="#767676" stroke-width="1" opacity="1"></path><path d="M 180 350 L 180 357" transform="translate(0.5,0)" stroke="#767676" stroke-width="1" opacity="1"></path><path d="M 203 350 L 203 357" transform="translate(0.5,0)" stroke="#767676" stroke-width="1" opacity="1"></path><path d="M 225 350 L 225 357" transform="translate(0.5,0)" stroke="#767676" stroke-width="1" opacity="1"></path></g><g class="dxc-arg-title"></g></g></g><g class="dxc-strips-labels-group"><g class="dxc-val-axis-labels"></g><g class="dxc-arg-axis-labels"></g></g><g class="dxc-constant-lines-group"><g class="dxc-val-constant-lines"></g><g class="dxc-val-constant-lines" transform="translate(0,0)"></g><g class="dxc-val-constant-lines" transform="translate(0,0)"></g><g class="dxc-arg-constant-lines"></g><g class="dxc-arg-constant-lines" transform="translate(0,0)"></g><g class="dxc-arg-constant-lines" transform="translate(0,0)"></g></g><g class="dxc-series-group"><g class="dxc-series"><g fill="#1db2f5" stroke="#1db2f5" stroke-width="0" class="dxc-markers" opacity="1" transform="translate(0,0) scale(1,1)"><rect x="28" y="61" width="16" height="289" transform="translate(0,0)" rx="0" ry="0" stroke-width="0"></rect><rect x="50" y="220" width="16" height="130" transform="translate(0,0)" rx="0" ry="0" stroke-width="0"></rect><rect x="73" y="274" width="16" height="76" transform="translate(0,0)" rx="0" ry="0" stroke-width="0"></rect><rect x="95" y="301" width="16" height="49" transform="translate(0,0)" rx="0" ry="0" stroke-width="0"></rect><rect x="117" y="303" width="16" height="47" transform="translate(0,0)" rx="0" ry="0" stroke-width="0"></rect><rect x="139" y="335" width="16" height="15" transform="translate(0,0)" rx="0" ry="0" stroke-width="0"></rect><rect x="161" y="338" width="16" height="12" transform="translate(0,0)" rx="0" ry="0" stroke-width="0"></rect><rect x="184" y="340" width="16" height="10" transform="translate(0,0)" rx="0" ry="0" stroke-width="0"></rect><rect x="206" y="340" width="16" height="10" transform="translate(0,0)" rx="0" ry="0" stroke-width="0"></rect><rect x="228" y="345" width="16" height="5" transform="translate(0,0)" rx="0" ry="0" stroke-width="0"></rect></g></g></g><g class="dxc-constant-lines-group"><g class="dxc-val-constant-lines"></g><g class="dxc-val-constant-lines" transform="translate(0,0)"></g><g class="dxc-val-constant-lines" transform="translate(0,0)"></g><g class="dxc-arg-constant-lines"></g><g class="dxc-arg-constant-lines" transform="translate(0,0)"></g><g class="dxc-arg-constant-lines" transform="translate(0,0)"></g></g><g class="dxc-scale-breaks"></g><g class="dxc-labels-group"><g class="dxc-labels" pointer-events="none" clip-path="url(#DevExpress_5)" transform="translate(0,0)"></g></g><g class="dxc-crosshair-cursor"></g><g class="dxc-legend" clip-path="url(#DevExpress_2)"></g><g class="dxc-annotations"></g></svg>