<svg xmlns:xlink="http://www.w3.org/1999/xlink" xmlns="http://www.w3.org/2000/svg" version="1.1" fill="none" stroke="none" stroke-width="0" class="dxc dxc-chart" style="line-height:normal;-ms-user-select:none;-moz-user-select:none;-webkit-user-select:none;-webkit-tap-highlight-color:rgba(0, 0, 0, 0);display:block;overflow:hidden;" width="247" height="400" direction="ltr"><defs><filter id="DevExpress_9" x="-50%" y="-50%" width="200%" height="200%" transform="translate(0,0)"><feGaussianBlur in="SourceGraphic" result="gaussianBlurResult" stdDeviation="3"></feGaussianBlur><feOffset in="gaussianBlurResult" result="offsetResult" dx="2" dy="6"></feOffset><feFlood result="floodResult" flood-color="#d3d3d3" flood-opacity="0.8"></feFlood><feComposite in="floodResult" in2="offsetResult" operator="in" result="compositeResult"></feComposite><feComposite in="SourceGraphic" in2="compositeResult" operator="over"></feComposite></filter><clipPath id="DevExpress_10"><rect x="0" y="0" width="247" height="400" transform="translate(0,0)"></rect></clipPath></defs><rect x="0" y="0" width="247" height="400" transform="translate(0,0)" fill="gray" opacity="0.0001"></rect><g class="dxc-background"></g><g class="dxc-series-group"><g class="dxc-series"><g class="dxc-markers"><path d="M 183.52154 175.37480 A 61.00000 61.00000 0 1 0 184.00000 183.00000 L 153.00000 183.00000 A 30.00000 30.00000 0 1 1 152.76469 179.24990 Z" transform="translate(0,0)" stroke-linejoin="round" fill="#60a69f" stroke="#ffffff" stroke-width="0"></path><path d="M 183.98927 181.85589 A 61.00000 61.00000 0 0 0 183.52154 175.37480 L 152.76469 179.24990 A 30.00000 30.00000 0 0 1 152.99472 182.43732 Z" transform="translate(0,0)" stroke-linejoin="round" fill="#78b6d9" stroke="#ffffff" stroke-width="0"></path><path d="M 183.99891 182.63594 A 61.00000 61.00000 0 0 0 183.98927 181.85589 L 152.99472 182.43732 A 30.00000 30.00000 0 0 1 152.99947 182.82096 Z" transform="translate(0,0)" stroke-linejoin="round" fill="#6682bb" stroke="#ffffff" stroke-width="0"></path><path d="M 183.99965 182.79197 A 61.00000 61.00000 0 0 0 183.99891 182.63594 L 152.99947 182.82096 A 30.00000 30.00000 0 0 1 152.99983 182.89769 Z" transform="translate(0,0)" stroke-linejoin="round" fill="#a37182" stroke="#ffffff" stroke-width="0"></path><path d="M 183.99991 182.89598 A 61.00000 61.00000 0 0 0 183.99965 182.79197 L 152.99983 182.89769 A 30.00000 30.00000 0 0 1 152.99996 182.94884 Z" transform="translate(0,0)" stroke-linejoin="round" fill="#eeba69" stroke="#ffffff" stroke-width="0"></path><path d="M 184.00000 183.00000 A 61.00000 61.00000 0 0 0 183.99991 182.89598 L 152.99996 182.94884 A 30.00000 30.00000 0 0 1 153.00000 183.00000 Z" transform="translate(0,0)" stroke-linejoin="round" fill="#90ba58" stroke="#ffffff" stroke-width="0"></path></g></g></g><g class="dxc-labels-group"><g class="dxc-labels" transform="translate(0,0)"><g visibility="visible"><path d="M 62 187 L 50 189 L 31 189" transform="translate(0.5,0.5)" stroke="#60a69f" stroke-width="1"></path><g transform="translate(8,193)"><rect x="-8" y="-17" width="31" height="25" transform="translate(0,0)" fill="#60a69f" stroke-width="0" stroke="none" isEmpty="false"></rect><text style="white-space:pre;fill:#ffffff;font-family:'Segoe UI', 'Helvetica Neue', 'Trebuchet MS', Verdana, sans-serif;font-weight:400;font-size:12px;cursor:default;" x="0" y="0" transform="translate(0,0)"><tspan x="0" y="0">1...</tspan></text></g></g><g visibility="visible"><path d="M 184 179 L 212 177 L 214 177" transform="translate(0.5,0.5)" stroke="#78b6d9" stroke-width="1"></path><g transform="translate(222,181)"><rect x="-8" y="-17" width="31" height="25" transform="translate(0,0)" fill="#78b6d9" stroke-width="0" stroke="none" isEmpty="false"></rect><text style="white-space:pre;fill:#ffffff;font-family:'Segoe UI', 'Helvetica Neue', 'Trebuchet MS', Verdana, sans-serif;font-weight:400;font-size:12px;cursor:default;" x="0" y="0" transform="translate(0,0)"><tspan x="0" y="0">2...</tspan></text></g></g><g visibility="visible"><path d="M 184 182 L 184 182 L 214 182" transform="translate(0.5,0.5)" stroke="#6682bb" stroke-width="1"></path><g transform="translate(222,186)"><rect x="-8" y="-17" width="29" height="25" transform="translate(0,0)" fill="#6682bb" stroke-width="0" stroke="none" isEmpty="false"></rect><text style="white-space:pre;fill:#ffffff;font-family:'Segoe UI', 'Helvetica Neue', 'Trebuchet MS', Verdana, sans-serif;font-weight:400;font-size:12px;cursor:default;" x="0" y="0" transform="translate(0,0)">30</text></g></g><g visibility="visible"><path d="M 184 183 L 184 183 L 214 183" transform="translate(0.5,0.5)" stroke="#a37182" stroke-width="1"></path><g transform="translate(222,187)"><rect x="-8" y="-17" width="23" height="25" transform="translate(0,0)" fill="#a37182" stroke-width="0" stroke="none" isEmpty="false"></rect><text style="white-space:pre;fill:#ffffff;font-family:'Segoe UI', 'Helvetica Neue', 'Trebuchet MS', Verdana, sans-serif;font-weight:400;font-size:12px;cursor:default;" x="0" y="0" transform="translate(0,0)">6</text></g></g><g visibility="visible"><path d="M 184 183 L 184 183 L 214 183" transform="translate(0.5,0.5)" stroke="#eeba69" stroke-width="1"></path><g transform="translate(223,187)"><rect x="-9" y="-17" width="24" height="25" transform="translate(0,0)" fill="#eeba69" stroke-width="0" stroke="none" isEmpty="false"></rect><text style="white-space:pre;fill:#ffffff;font-family:'Segoe UI', 'Helvetica Neue', 'Trebuchet MS', Verdana, sans-serif;font-weight:400;font-size:12px;cursor:default;" x="0" y="0" transform="translate(0,0)">4</text></g></g><g visibility="visible"><path d="M 184 183 L 184 183 L 214 183" transform="translate(0.5,0.5)" stroke="#90ba58" stroke-width="1"></path><g transform="translate(223,187)"><rect x="-9" y="-17" width="24" height="25" transform="translate(0,0)" fill="#90ba58" stroke-width="0" stroke="none" isEmpty="false"></rect><text style="white-space:pre;fill:#ffffff;font-family:'Segoe UI', 'Helvetica Neue', 'Trebuchet MS', Verdana, sans-serif;font-weight:400;font-size:12px;cursor:default;" x="0" y="0" transform="translate(0,0)">4</text></g></g></g></g><g class="dxc-legend" clip-path="url(#DevExpress_10)" transform="translate(0,0)"><g transform="translate(38,367)"><g class="dxc-item" style="fill:#767676;font-family:'Segoe UI', 'Helvetica Neue', 'Trebuchet MS', Verdana, sans-serif;font-weight:400;font-size:12px;cursor:default;"><g><g class="dxl-marker" transform="translate(0,0)"><rect x="0" y="0" width="12" height="12" transform="translate(0,0)" fill="#60a69f" opacity="1"></rect></g><text style="white-space:pre;fill:#767676;font-family:'Segoe UI', 'Helvetica Neue', 'Trebuchet MS', Verdana, sans-serif;font-weight:400;font-size:12px;cursor:default;" x="0" y="0" transform="translate(6,29)" text-anchor="middle">1</text></g><g><g class="dxl-marker" transform="translate(32,0)"><rect x="0" y="0" width="12" height="12" transform="translate(0,0)" fill="#78b6d9" opacity="1"></rect></g><text style="white-space:pre;fill:#767676;font-family:'Segoe UI', 'Helvetica Neue', 'Trebuchet MS', Verdana, sans-serif;font-weight:400;font-size:12px;cursor:default;" x="0" y="0" transform="translate(38,29)" text-anchor="middle">2</text></g><g><g class="dxl-marker" transform="translate(64,0)"><rect x="0" y="0" width="12" height="12" transform="translate(0,0)" fill="#6682bb" opacity="1"></rect></g><text style="white-space:pre;fill:#767676;font-family:'Segoe UI', 'Helvetica Neue', 'Trebuchet MS', Verdana, sans-serif;font-weight:400;font-size:12px;cursor:default;" x="0" y="0" transform="translate(70,29)" text-anchor="middle">3</text></g><g><g class="dxl-marker" transform="translate(96,0)"><rect x="0" y="0" width="12" height="12" transform="translate(0,0)" fill="#a37182" opacity="1"></rect></g><text style="white-space:pre;fill:#767676;font-family:'Segoe UI', 'Helvetica Neue', 'Trebuchet MS', Verdana, sans-serif;font-weight:400;font-size:12px;cursor:default;" x="0" y="0" transform="translate(103,29)" text-anchor="middle">4</text></g><g><g class="dxl-marker" transform="translate(128,0)"><rect x="0" y="0" width="12" height="12" transform="translate(0,0)" fill="#eeba69" opacity="1"></rect></g><text style="white-space:pre;fill:#767676;font-family:'Segoe UI', 'Helvetica Neue', 'Trebuchet MS', Verdana, sans-serif;font-weight:400;font-size:12px;cursor:default;" x="0" y="0" transform="translate(134,29)" text-anchor="middle">7</text></g><g><g class="dxl-marker" transform="translate(160,0)"><rect x="0" y="0" width="12" height="12" transform="translate(0,0)" fill="#90ba58" opacity="1"></rect></g><text style="white-space:pre;fill:#767676;font-family:'Segoe UI', 'Helvetica Neue', 'Trebuchet MS', Verdana, sans-serif;font-weight:400;font-size:12px;cursor:default;" x="0" y="0" transform="translate(166,29)" text-anchor="middle">9</text></g></g></g></g></svg>